# xmcd
# 
# Track frame offsets:
#     150
#     16050
#     31567
#     52622
#     67962
#     87602
#     102812
#     125632
#     140700
#     156965
#     173327
#     191200
#     209070
#     229565
#     247380
#     264487
#     279280
#     293047
#     311817
#     334105
# 
# Disc length: 4643
# 
# Revision: 12
# Processed by: cddbd v1.5.2PL0 Copyright (c) Steve Scherf et al.
# Submitted via: fre:ac v1.0.27
# 
DISCID=1e122114
DTITLE=Various Artist - 5107
DYEAR=1998
DGENRE=Top 40
TTITLE0=Village People - Go West
TTITLE1=Trammps - Shout
TTITLE2=Weather Girls - It's Raining Men
TTITLE3=Santa Esmeralda - Don't Let Me Be Misunderstood
TTITLE4=Grace Jones - Slave To The Rhythmn
TTITLE5=Tom Browne - Funkin' For Jamaica
TTITLE6=James Brown - Sex Machine
TTITLE7=Lyn Collins - Think
TTITLE8=Thelma Houston - Don't Leave Me This Way
TTITLE9=Emotions - Best Of My Love
TTITLE10=Temptations - Treat Her Like A Lady
TTITLE11=Ltd - Back In Love Again
TTITLE12=Carl Carlton - She's A Bad Mama Jama
TTITLE13=Commodores - Lady (You Bring Me Up)
TTITLE14=Patrick Juvet - I Love America
TTITLE15=Evelyn ''Champagne'' King - Shame
TTITLE16=Ritchie Family - America Generation
TTITLE17=Quincy Jones - Ai No Corrida
TTITLE18=Odyssey - Use It Up And Wear It Out
TTITLE19=Gloria Gaynor - I Will Survive
EXTD=OTS
EXTT0=
EXTT1=
EXTT2=
EXTT3=
EXTT4=
EXTT5=
EXTT6=
EXTT7=
EXTT8=
EXTT9=
EXTT10=
EXTT11=
EXTT12=
EXTT13=
EXTT14=
EXTT15=
EXTT16=
EXTT17=
EXTT18=
EXTT19=
PLAYORDER=
